# xmcd
#
# Track frame offsets:
#	150
#	11775
#	27247
#	44297
#	58445
#	72827
#	87417
#	100212
#	115712
#	134125
#	147017
#	163775
#	179912
#	194762
#	209427
#
# Disc length: 3011 seconds
#
# Revision: 0
# Processed by: cddbd v1.4PL0 Copyright (c) Steve Scherf et al.
# Submitted via: EasyCDDAExtractor 4.6.0.1
#
DISCID=ed0bc10f
DTITLE=Lenny Paquette - Dances a Lot...
DYEAR=1997
DGENRE=country
TTITLE0=Backyard Boogie
TTITLE1=Bachelor Of Hearts
TTITLE2=Let Him Down Easy
TTITLE3=Like Our Lovin'
TTITLE4=Sweet Steel Sweetheart
TTITLE5=She Dances A Lot
TTITLE6=Born At Night
TTITLE7=You Had A Good Thing
TTITLE8=No Win Situation
TTITLE9=Crossed Wires and A Cross Wife
TTITLE10=Stuck In The Middle
TTITLE11=It's OK To Cry
TTITLE12=5.0 Liter Lover
TTITLE13=Fire and Ice
TTITLE14=Cowboy Angel
EXTD=
EXTT0=
EXTT1=
EXTT2=
EXTT3=
EXTT4=
EXTT5=
EXTT6=
EXTT7=
EXTT8=
EXTT9=
EXTT10=
EXTT11=
EXTT12=
EXTT13=
EXTT14=
PLAYORDER=
